# xmcd
#
# Track frame offsets:
#	150
#	14077
#	33911
#	35943
#	54316
#	73841
#	92969
#	94844
#	113582
#	114803
#	132813
#	134602
#	150731
#	167876
#	184211
#	199053
#	199922
#	216888
#	218269
#	237941
#	255523
#	277941
#	295893
#	310871
#	330123
#
# Disc length: 4715 seconds
#
# Revision: 1
# Processed by: cddbd v1.5.2PL0 Copyright (c) Steve Scherf et al.
# Submitted via: audiograbber 1.83.01
#
DISCID=6b126919
DTITLE=Benzino - The Antidote
DYEAR=2007
DGENRE=Rap
TTITLE0=Benzino - American Z
TTITLE1=Benzino - On My Grizzy
TTITLE2=Benzino - A Bad Year (Skit)
TTITLE3=Benzino, Ballgrum, One Monzta - Pocket Full Of Gzzz
TTITLE4=Benzino, Young LO - HowUWannit
TTITLE5=Benzino, Young Hardy, Young LO, Xavier - Run Up
TTITLE6=Benzino - The Interview (Skit)
TTITLE7=Benzino, Ja Rule, Lil Dev - Gameface
TTITLE8=Scarface - Scarface (Skit)
TTITLE9=Benzino - Return Of Tha Nemeziz
TTITLE10=Benzino - Kilo and Nate (Bloodline Skit)
TTITLE11=Benzino, T-Drop - Huztle All Day
TTITLE12=Benzino, Stevie J - Rollin'
TTITLE13=Benzino, Kalena - Gotta Girl
TTITLE14=Benzino - Zexxxy
TTITLE15=Benzino - Picalo (Skit)
TTITLE16=Benzino, Picalo, Lil Dev, Ballgrum - Re-Up
TTITLE17=Benzino - DJ Johnie B In Greece (Intro)
TTITLE18=Benzino, Banger, Punchy, Price - Let It Bang
TTITLE19=Benzino, Lil Dev, Cognito - Gimme Dat P
TTITLE20=Benzino, Cognito, One Monzta, Tycoon, Picalo - If It'z About Game
TTITLE21=Benzino, Young Hardy, Young LO, One Monzta - Tha Departed
TTITLE22=Benzino, Hennessi, Ballgrum - Armed and Dangerouz
TTITLE23=Benzino, Young LO, Young Hardy - Ztill A Myztery
TTITLE24=Benzino, Ugly, The 1st 48 - 48 Lawz Of Power
EXTD=www.RapMusicGuide.com
EXTT0=
EXTT1=
EXTT2=
EXTT3=
EXTT4=
EXTT5=
EXTT6=
EXTT7=
EXTT8=
EXTT9=
EXTT10=
EXTT11=
EXTT12=
EXTT13=
EXTT14=
EXTT15=
EXTT16=
EXTT17=
EXTT18=
EXTT19=
EXTT20=
EXTT21=
EXTT22=
EXTT23=
EXTT24=
PLAYORDER=
